<svg width="236" height="97" viewBox="0 0 236 97" fill="none" xmlns="http://www.w3.org/2000/svg">
<path d="M5.28314 3.3963C0.759176 10.2485 1.05514 19.7503 5.99908 26.3283C9.29411 30.7155 14.2352 33.6583 18.1588 37.5297C22.0824 41.401 25.0646 47.1157 22.9928 52.1489C20.8845 57.2718 14.7088 59.354 10.0862 62.601C4.98589 66.1788 1.52347 71.521 0.426048 77.5055C-0.671377 83.4901 0.681576 89.6514 4.20077 94.6955H52.2365C52.2365 94.6955 60.6756 79.2075 49.8266 67.4007C38.9775 55.594 33.1513 55.404 33.5516 47.6613C33.9518 39.9187 39.5779 37.4075 42.794 34.5026C46.0101 31.5978 61.6791 24.8298 52.4366 3.39358L5.28314 3.3963Z" fill="#FAFAFA"/>
<path d="M5.28314 3.3963L52.4733 3.37184V3.40442C53.1808 5.02751 53.7833 6.69126 54.2772 8.3861C54.7959 10.1606 55.1376 11.9787 55.2976 13.8157C55.4639 15.736 55.3615 17.669 54.9932 19.563C54.5887 21.5263 53.8556 23.4132 52.8228 25.1501C52.2877 26.0359 51.6827 26.8809 51.0132 27.6776C50.3299 28.4849 49.5907 29.2468 48.8006 29.958C48.0004 30.6822 47.1622 31.3663 46.2891 32.0077C45.4154 32.6593 44.5021 33.2728 43.6114 33.9244C43.1661 34.2474 42.7658 34.6112 42.3317 34.975C41.8977 35.3388 41.4664 35.6781 41.021 36.0202C40.1332 36.7043 39.2368 37.3776 38.3912 38.135C36.6263 39.6084 35.2701 41.4819 34.4451 43.5864C34.0486 44.6658 33.7985 45.7899 33.701 46.931C33.6756 47.2025 33.6361 47.5011 33.6249 47.7889C33.6136 48.0767 33.6023 48.3644 33.6249 48.6522C33.6313 49.23 33.6917 49.806 33.8053 50.3734C34.0288 51.5231 34.516 52.6101 35.2315 53.5552C35.9678 54.5 36.8017 55.3705 37.7204 56.1532C39.5441 57.7577 41.4805 59.2916 43.3324 60.9476C45.1842 62.6036 46.9966 64.3303 48.7442 66.1573C49.6359 67.0617 50.4698 68.0173 51.2415 69.0187C52.0179 70.0328 52.6927 71.1154 53.2569 72.2521C54.3976 74.556 55.0984 77.039 55.3258 79.5821C55.5557 82.1604 55.3981 84.7572 54.8579 87.2922C54.5953 88.5729 54.2508 89.8368 53.8263 91.0766C53.409 92.3268 52.9004 93.547 52.3042 94.728L52.2844 94.766H4.16131L4.14158 94.7362C1.88896 91.4695 0.50743 87.7182 0.119341 83.8145C-0.27111 80.0647 0.29993 76.28 1.78235 72.7923C3.19128 69.4586 5.3607 66.4728 8.13 64.0561C9.47386 62.9135 10.9251 61.8937 12.4651 61.01C13.9646 60.1142 15.4783 59.2834 16.9073 58.3767C18.3378 57.5155 19.6519 56.4869 20.8196 55.3144C21.9348 54.1629 22.762 52.7812 23.2381 51.2747C23.6553 49.8049 23.7208 48.2631 23.4297 46.7654C23.1517 45.32 22.651 43.9228 21.9443 42.6199C21.2684 41.3653 20.4578 40.1825 19.5259 39.0906C18.6263 38.0432 17.6485 37.0605 16.6001 36.1505C14.5678 34.3479 12.4848 32.7706 10.6132 31.1498C9.67463 30.3354 8.78675 29.5209 7.96651 28.6875C7.17153 27.8715 6.43865 27.0014 5.77359 26.084C4.57129 24.4014 3.64441 22.5509 3.02539 20.5973C2.48315 18.9102 2.16864 17.1629 2.08959 15.3985C2.05013 14.9967 2.06704 14.6003 2.06704 14.2121C2.06704 13.8239 2.06704 13.4465 2.10368 13.08C2.14033 12.7135 2.16006 12.3552 2.18824 11.9941C2.21643 11.633 2.29254 11.31 2.34045 10.9815C2.65186 8.98173 3.28721 7.04146 4.22332 5.23149C4.35011 4.9515 4.49509 4.67947 4.6574 4.41705L5.00409 3.84965C5.18731 3.54831 5.28596 3.39628 5.28596 3.39628L5.00409 3.8578L4.66867 4.41705C4.51024 4.68064 4.3672 4.95254 4.24023 5.23149C3.3126 7.04585 2.68493 8.98865 2.37992 10.9896C2.332 11.3154 2.27562 11.652 2.23334 11.9968C2.19106 12.3416 2.17697 12.7027 2.14878 13.0692C2.1206 13.4357 2.1206 13.813 2.11778 14.1985C2.11496 14.584 2.10368 14.9804 2.14314 15.3822C2.22468 17.1408 2.54207 18.8819 3.0874 20.562C3.70569 22.5087 4.63168 24.3519 5.83278 26.027C6.49618 26.9406 7.22818 27.8062 8.02289 28.6169C8.8403 29.4531 9.72818 30.2675 10.6668 31.0602C12.5384 32.6891 14.6129 34.2501 16.6593 36.0555C17.7158 36.9721 18.7012 37.9621 19.6076 39.0173C20.5447 40.1171 21.36 41.3081 22.0401 42.571C22.7535 43.882 23.259 45.2885 23.5397 46.7437C23.8349 48.2575 23.7693 49.8161 23.348 51.3019C22.8698 52.8258 22.0347 54.2237 20.907 55.3877C19.7335 56.5669 18.4139 57.6027 16.9778 58.4717C15.5431 59.3812 14.0295 60.2119 12.5328 61.1078C10.9993 61.9892 9.55376 63.0052 8.21456 64.1429C5.46229 66.5473 3.30558 69.5161 1.90356 72.8303C0.430097 76.3002 -0.136125 80.0655 0.254636 83.7955C0.642767 87.6769 2.01742 91.4065 4.25715 94.6547L4.20077 94.6249H52.2365L52.1717 94.6629C52.7669 93.4849 53.2737 92.2674 53.6881 91.0196C54.1104 89.7851 54.4531 88.5267 54.7141 87.2514C55.252 84.729 55.4086 82.145 55.1792 79.5794C54.9563 77.0501 54.2601 74.5806 53.1244 72.2901C52.5642 71.1616 51.8951 70.0863 51.126 69.0785C50.356 68.0822 49.5259 67.1303 48.6399 66.2279C46.9017 64.4054 45.1006 62.6715 43.2365 61.0263C41.3875 59.373 39.4567 57.8419 37.6274 56.2293C36.7014 55.4401 35.86 54.5633 35.1159 53.6122C34.3865 52.6556 33.8868 51.555 33.653 50.3897C33.5402 49.814 33.4789 49.2299 33.4698 48.6441C33.4557 48.3536 33.4698 48.0631 33.4698 47.7726C33.4698 47.4821 33.5206 47.1944 33.5431 46.9066C33.6466 45.7587 33.9023 44.6282 34.3042 43.5429C35.1364 41.4199 36.5053 39.5304 38.2869 38.0454C39.1325 37.2907 40.0373 36.6066 40.9252 35.9252C41.3706 35.5831 41.8075 35.2383 42.2331 34.8854C42.6587 34.5325 43.0787 34.1524 43.5184 33.8266C44.4147 33.1751 45.3251 32.5615 46.1961 31.9127C47.0665 31.2742 47.9029 30.5937 48.7019 29.8739C49.4868 29.1658 50.2222 28.4085 50.9033 27.607C51.5674 26.8131 52.1695 25.9728 52.7044 25.0931C53.7314 23.3682 54.4606 21.4941 54.8635 19.544C55.2301 17.6654 55.3335 15.7479 55.1708 13.8429C55.0132 12.0062 54.6744 10.1881 54.1589 8.41325C53.6718 6.71373 53.0769 5.0446 52.3775 3.41528L52.4254 3.44514L6.1062 3.42071L5.28314 3.3963Z" fill="#263238"/>
<path d="M50.52 15.9632C57.5948 17.0844 46.4413 29.1545 40.1247 33.9163C36.4604 36.6718 32.5425 39.6635 30.8062 43.8117C28.8331 48.5192 30.296 53.8077 29.3433 58.5423C29.3126 58.7056 29.2189 58.8516 29.081 58.9511C28.9432 59.0506 28.7713 59.0961 28.6 59.0786C28.4287 59.0611 28.2707 58.9817 28.1576 58.8566C28.0445 58.7314 27.9847 58.5697 27.9903 58.4039C28.0354 55.2954 27.9509 52.1897 27.4266 49.1301C26.6684 44.7864 24.9377 40.4997 21.7893 37.3206C19.2102 34.7225 15.8306 32.9986 13.0824 30.5716C9.06862 27.0288 4.9449 22.4597 4.54183 17.231C4.54183 17.231 12.2481 11.2584 16.5268 12.005C21.5271 12.8873 26.4485 20.3177 34.1942 19.468C39.5835 18.8735 42.3148 14.6655 50.52 15.9632Z" fill="#CFD8DC"/>
<path d="M51.1485 80.5622C50.9709 78.8572 50.4974 76.9297 48.9274 76.1262C47.9775 75.6375 46.819 75.6918 45.7761 75.9551C44.7332 76.2185 43.7551 76.6773 42.7235 76.9732C40.6727 77.554 38.4826 77.4865 36.4745 76.7804C34.555 76.1017 32.9089 74.88 31.1191 73.9081C29.3292 72.9362 27.2518 72.225 25.2675 72.7C21.8456 73.5145 20.0642 77.489 16.6818 78.4473C15.1767 78.8708 13.5616 78.6319 12.0339 78.3007C10.5061 77.9695 8.96996 77.5378 7.4056 77.5949C6.17666 77.6383 4.8998 78.0482 4.0401 78.8573L4.01755 78.8817C3.87443 79.0167 3.74424 79.1639 3.62858 79.3215C2.58003 80.6789 2.41091 82.4788 2.73506 84.124C3.09585 85.9673 3.98937 87.6695 4.94772 89.3011C6.07518 91.2232 7.36049 93.1345 9.22645 94.4158C11.5321 95.9986 14.4269 94.9072 17.2484 95.1217C23.8243 95.6212 30.8992 95.9606 37.478 95.4719C40.9534 95.2004 44.209 95.5751 46.9656 93.52C48.9049 92.0757 50.1676 89.8984 50.7764 87.6125C51.3853 85.3267 51.3937 82.9105 51.1485 80.5622Z" fill="#CFD8DC"/>
<path d="M38.7351 77.299C38.3658 77.842 38.2052 78.5804 38.5632 79.1342C38.9211 79.688 39.4088 80.1957 39.561 80.8337C39.8062 81.8327 39.1804 82.8101 38.7154 83.7358C37.8545 85.391 37.5295 87.257 37.7824 89.0922C38.049 90.9333 39.0362 92.6067 40.5419 93.7698C41.2099 94.2666 42.078 94.6521 42.8842 94.4078C43.6424 94.1797 44.13 93.4386 44.2935 92.6866C44.457 91.9346 44.3189 91.1608 44.2202 90.4034C43.7612 86.8733 43.8562 83.2968 44.5021 79.7939C44.6092 79.2102 44.7107 78.5424 44.3273 78.0782C44.0508 77.8078 43.6996 77.6194 43.3154 77.5352C41.8497 77.0655 40.2685 77.5868 38.7492 77.3099" fill="black"/>
<path d="M0.674626 96.7968C0.674626 96.7968 0.542148 94.6738 3.41719 93.4901H53.9418C53.9418 93.4901 56.5773 94.7769 56.9014 96.7479L0.674626 96.7968Z" fill="#263238"/>
<path d="M52.8679 3.65421L52.7862 3.68951L5.2775 3.39631C5.2775 3.39631 5.10838 3.29314 4.85752 3.10039C4.56136 2.87693 4.34528 2.56975 4.23961 2.22198C4.13395 1.8742 4.14401 1.50329 4.26838 1.1613C4.39275 0.819312 4.62518 0.523419 4.93305 0.315154C5.24093 0.106888 5.60878 -0.00329277 5.98499 7.49629e-05L52.0984 0.35843C53.9954 0.374719 54.5929 2.87235 52.8679 3.65421Z" fill="#263238"/>
<path d="M45.2575 21.1105C45.3533 21.2869 44.9954 21.6534 44.3161 22.2507C43.6368 22.8479 42.6249 23.6325 41.3677 24.618C39.8584 25.8191 38.2565 26.9082 36.576 27.8758C35.5321 28.458 34.4336 28.9443 33.2951 29.3282C32.6781 29.5336 32.0483 29.7014 31.4094 29.8304C30.7382 29.9677 30.0568 30.0531 29.3715 30.0856C27.9828 30.1584 26.5926 29.9741 25.276 29.5427C24.1119 29.1349 23.0058 28.5877 21.9838 27.9138C21.0367 27.3111 20.2221 26.7138 19.447 26.141C18.6718 25.5682 17.9812 25.0171 17.3555 24.4958C14.861 22.4136 13.5475 20.8824 13.8012 20.5865C14.0548 20.2906 15.8306 21.2543 18.5929 22.8832L20.8478 24.2135C21.6568 24.6859 22.5221 25.2098 23.4072 25.6931C24.2854 26.1896 25.2162 26.5946 26.1836 26.9012C27.1735 27.1867 28.2073 27.3042 29.239 27.2487C31.4037 27.1401 33.5037 26.4071 35.3217 25.56C37.1397 24.713 38.7858 23.7248 40.2121 22.9538C41.3408 22.3123 42.5209 21.7585 43.7411 21.2978C44.6346 20.9964 45.1758 20.9394 45.2575 21.1105Z" fill="black"/>
<path d="M28.0242 64.2136C28.2239 64.1371 28.4468 64.1394 28.6448 64.22C28.8427 64.3007 28.9997 64.4532 29.0818 64.6445C29.1639 64.8358 29.1644 65.0506 29.0833 65.2423C29.0021 65.434 28.8459 65.5872 28.6483 65.6687C28.4508 65.7503 28.2278 65.7536 28.0277 65.678C27.8277 65.6024 27.6665 65.4539 27.5793 65.2647C27.492 65.0755 27.4857 64.8609 27.5615 64.6672C27.6374 64.4735 27.7894 64.3164 27.9847 64.2299" fill="#CFD8DC"/>
<path d="M11.0332 28.6821C10.9715 28.6332 10.9148 28.5787 10.8641 28.5192L10.4047 28.0359C10.2102 27.8215 9.95368 27.5717 9.69154 27.2541L8.79521 26.1681C8.48797 25.7501 8.14127 25.2994 7.79176 24.8107L7.27594 24.0207C7.18856 23.885 7.09555 23.7492 7.01099 23.6054L6.76294 23.1656C6.01279 21.8851 5.42512 20.5224 5.01255 19.1069C4.59798 17.6926 4.3744 16.2326 4.34735 14.7632C4.34735 14.4239 4.36708 14.0954 4.37271 13.7723C4.37271 13.6121 4.37271 13.4547 4.39526 13.2999C4.41781 13.1452 4.42909 12.9932 4.446 12.8438C4.48264 12.5452 4.50519 12.2547 4.54747 11.9778C4.58975 11.7009 4.64895 11.4349 4.69686 11.1878C4.77579 10.6801 4.91672 10.2376 5.01537 9.8304C5.06892 9.63493 5.1112 9.45032 5.16476 9.28743L5.31979 8.83406L5.53682 8.21237C5.55756 8.13835 5.58589 8.06651 5.62139 7.9979C5.6098 8.07362 5.59092 8.14815 5.56501 8.22051C5.51709 8.37797 5.45508 8.58701 5.37334 8.85035L5.23241 9.30372C5.18449 9.46932 5.14503 9.65393 5.09429 9.84668C5.00409 10.2403 4.87162 10.6856 4.81242 11.2041C4.76733 11.4539 4.72223 11.7172 4.67431 11.9914C4.6264 12.2656 4.61512 12.5534 4.5813 12.852C4.5813 13.0013 4.55029 13.1506 4.53338 13.3054C4.51647 13.4601 4.53338 13.6176 4.51647 13.775C4.51647 14.0954 4.49392 14.4211 4.49674 14.7578C4.52425 16.2186 4.74495 17.67 5.15349 19.0771C5.56384 20.4822 6.14374 21.8361 6.88133 23.1113C6.96307 23.2579 7.04481 23.4045 7.12374 23.5511C7.20266 23.6977 7.30131 23.8225 7.38587 23.9637L7.89323 24.7537C8.23711 25.2533 8.57817 25.7039 8.87694 26.1111L9.75637 27.1971C10.0101 27.5201 10.2609 27.7726 10.4469 27.9952L10.8867 28.4975C10.9395 28.556 10.9884 28.6176 11.0332 28.6821Z" fill="#263238"/>
<path d="M8.35831 69.0134C8.37226 68.982 8.38925 68.952 8.40904 68.9238L8.57816 68.6686C8.65427 68.5546 8.74728 68.4188 8.86003 68.2559L9.03761 67.9845C9.10807 67.8949 9.18982 67.8053 9.27156 67.713L9.83529 67.0614C10.0523 66.8361 10.3004 66.6026 10.5625 66.3474C11.1703 65.7838 11.8163 65.2595 12.4961 64.7783C13.9928 63.6923 15.9236 62.6064 18.0151 61.3332C19.1148 60.6804 20.1719 59.9633 21.1804 59.1857C22.2624 58.3557 23.2178 57.3833 24.0188 56.2972C25.4849 54.1276 26.2815 51.6018 26.316 49.0133C26.3518 46.9037 25.9849 44.8056 25.2337 42.8236C24.7361 41.486 24.1115 40.1955 23.3677 38.9685C23.1056 38.5314 22.8914 38.2002 22.7448 37.9749L22.5785 37.7197C22.5418 37.6627 22.5249 37.6301 22.5249 37.6301C22.5501 37.6545 22.5719 37.6819 22.5898 37.7116L22.7702 37.9613C22.9252 38.1785 23.1479 38.5043 23.4156 38.9414C24.1824 40.1618 24.8243 41.4511 25.3323 42.791C26.1037 44.7812 26.486 46.8918 26.4598 49.0161C26.4479 49.6285 26.3961 50.2396 26.3048 50.8458C26.2135 51.4799 26.075 52.1068 25.8904 52.7218C25.5054 54.0239 24.9069 55.2584 24.1175 56.3786C23.3083 57.4766 22.3423 58.4591 21.2481 59.297C20.2336 60.0753 19.1709 60.7933 18.0658 61.4472C15.9659 62.7096 14.0323 63.7846 12.5356 64.8624C11.8559 65.3373 11.2082 65.8533 10.5963 66.4072C10.3342 66.6596 10.0833 66.8877 9.86347 67.1103L9.29974 67.7483C9.21518 67.846 9.13344 67.9356 9.06297 68.0198L8.87976 68.2777L8.5979 68.6822L8.4175 68.9292C8.40015 68.9588 8.38035 68.9869 8.35831 69.0134Z" fill="#263238"/>
<path d="M5.73696 73.8104C5.71995 73.8545 5.69922 73.8972 5.67495 73.938L5.472 74.2828C5.38181 74.4294 5.27469 74.614 5.16477 74.8257C5.05484 75.0375 4.9139 75.2872 4.79552 75.5723C4.73351 75.7135 4.66586 75.8601 4.59821 76.0121C4.53057 76.1641 4.4742 76.3325 4.40655 76.5008C4.27125 76.8374 4.16414 77.2066 4.04012 77.5867C3.54985 79.2886 3.38087 81.0614 3.54121 82.8209C3.58913 83.2226 3.62296 83.6082 3.69624 83.9611C3.72725 84.1375 3.75262 84.3113 3.78926 84.4742C3.8259 84.6371 3.86536 84.7945 3.902 84.9438C3.96401 85.2452 4.05703 85.5085 4.12468 85.742C4.19233 85.9755 4.25998 86.1764 4.32199 86.3393L4.45446 86.7139C4.47347 86.7562 4.48582 86.8011 4.4911 86.8469C4.46394 86.8092 4.44214 86.7681 4.42628 86.7248C4.384 86.6243 4.33326 86.5049 4.26843 86.3583C4.18324 86.165 4.10891 85.9674 4.04575 85.7664C3.96965 85.533 3.871 85.2696 3.80053 84.9683C3.76107 84.819 3.72161 84.6615 3.67933 84.4986C3.63705 84.3357 3.61168 84.1593 3.57504 83.9828C3.49611 83.6244 3.45666 83.2389 3.40592 82.8344C3.22948 81.0641 3.39966 79.2776 3.90764 77.5677C4.03448 77.1768 4.14723 76.8048 4.29098 76.4682C4.36145 76.2999 4.41782 76.1343 4.4911 75.9795L4.69969 75.537C4.82371 75.2655 4.98155 75.0131 5.09148 74.7959C5.19081 74.6091 5.30091 74.4278 5.42127 74.2529L5.64676 73.919C5.70313 73.8457 5.73132 73.8077 5.73696 73.8104Z" fill="#263238"/>
<path d="M40.5842 80.3368L40.5278 80.3748L40.353 80.4807L39.6681 80.8771L39.172 81.1486C38.986 81.249 38.7802 81.3413 38.5604 81.4472C38.115 81.6535 37.6246 81.9169 37.0439 82.1286L36.1419 82.4843C35.8291 82.6037 35.488 82.6987 35.1441 82.8127C34.4592 83.0544 33.6982 83.2281 32.9061 83.4263C29.4284 84.2108 25.8211 84.3032 22.3051 83.6978C21.499 83.5403 20.7323 83.4046 20.0332 83.1983C19.6837 83.1005 19.3399 83.0245 19.0185 82.9268L18.0996 82.6037C17.5105 82.4218 17.0032 82.1856 16.5494 82.001C16.3239 81.906 16.1125 81.8218 15.9236 81.7295L15.4106 81.4716L14.706 81.1106L14.5256 81.0128L14.4664 80.9775C14.4664 80.9775 14.4917 80.9775 14.534 81.002L14.7201 81.0861L15.436 81.4228L15.9518 81.6671C16.1435 81.754 16.3577 81.8327 16.5832 81.925C17.037 82.0988 17.5444 82.3295 18.1363 82.5033L19.0439 82.8209C19.3652 82.9241 19.7091 82.9974 20.0586 83.0924C20.7548 83.2933 21.5187 83.4209 22.3136 83.5756C25.8133 84.1593 29.3986 84.0671 32.861 83.3041C33.6502 83.1087 34.4085 82.9431 35.0934 82.7069C35.4373 82.5956 35.7755 82.506 36.0884 82.3865L36.9904 82.0417C37.571 81.8354 38.0643 81.5802 38.5096 81.382C38.7295 81.2789 38.9381 81.1893 39.1241 81.1106L39.6258 80.8391L40.322 80.4644L40.5052 80.3721C40.5616 80.3423 40.5842 80.3341 40.5842 80.3368Z" fill="#263238"/>
<path d="M43.524 22.8778C43.5068 22.8975 43.4869 22.9148 43.4648 22.9294L43.2788 23.076C43.1069 23.209 42.8673 23.3963 42.56 23.6189C41.9343 24.0968 41.0267 24.789 39.8795 25.6143C38.5445 26.5986 37.1444 27.4982 35.6881 28.3074C34.8221 28.7742 33.9192 29.1745 32.9878 29.5047C31.9832 29.8567 30.9352 30.0812 29.8704 30.1725C27.8001 30.2844 25.7356 29.8706 23.8835 28.9726C23.0826 28.5807 22.3095 28.1381 21.5694 27.6477C20.8817 27.1808 20.2531 26.7274 19.6978 26.2903C18.5704 25.427 17.7078 24.6967 17.099 24.1972L16.4028 23.6162L16.2252 23.4642L16.166 23.4072C16.166 23.4072 16.1914 23.4072 16.2337 23.4506L16.4225 23.5945L17.1356 24.1538C17.7558 24.6424 18.6408 25.3591 19.7626 26.2116C20.3264 26.6378 20.9493 27.0858 21.6399 27.5473C22.3774 28.0292 23.1466 28.4645 23.9427 28.8504C25.7763 29.7307 27.8164 30.1358 29.8619 30.0259C30.914 29.9361 31.9496 29.7152 32.9427 29.3689C33.8678 29.0432 34.765 28.6484 35.6261 28.188C37.0802 27.3935 38.4819 26.5131 39.8231 25.5519C40.9731 24.7375 41.8892 24.0587 42.529 23.5945L43.2647 23.0516L43.4592 22.9158C43.4787 22.9001 43.5006 22.8873 43.524 22.8778Z" fill="#263238"/>
<path d="M18.1024 82.6173C19.4385 81.6236 21.3157 81.8626 22.9675 82.1992C24.6192 82.5358 26.2822 83.0761 27.9537 82.8507C29.2136 82.6797 30.3693 82.0852 31.618 81.8245C32.8666 81.5639 34.369 81.7567 35.0596 82.7856C29.5401 84.4985 23.5925 84.4395 18.1109 82.6173" fill="black"/>
<path d="M64.7063 75.2492L58.6462 68.7038L58.5842 76.6609L60.4107 81.7648L42.2528 84.7972L41.4833 70.9978L40.1755 60.41C40.0978 59.7788 40.2392 59.1405 40.5778 58.5949C40.9164 58.0493 41.433 57.6269 42.0471 57.3939L47.0446 55.4935L54.0912 56.7369L56.924 57.774C58.1117 58.2096 59.1705 58.9189 60.0076 59.8399L68.5313 69.2278" fill="#CFD8DC"/>
<path d="M58.2234 67.1292C58.5656 67.1247 58.9072 67.1012 59.2466 67.0586C60.0641 66.9385 60.8258 66.5859 61.4339 66.0461C62.0421 65.5063 62.469 64.8039 62.66 64.0289C62.7302 63.7052 62.7819 63.378 62.815 63.0489C62.8379 63.1376 62.8464 63.2291 62.8404 63.3203C62.8425 63.5668 62.816 63.8126 62.7615 64.0534C62.5908 64.8595 62.1612 65.5935 61.5334 66.1513C60.9056 66.7092 60.1115 67.0627 59.2635 67.1618C59.0102 67.1933 58.7541 67.1988 58.4996 67.1781C58.4054 67.1762 58.3122 67.1597 58.2234 67.1292Z" fill="white"/>
<path d="M58.7505 76.3216C58.7928 76.3216 58.804 73.5633 58.7759 70.1644C58.7477 66.7655 58.6885 64.0099 58.6462 64.0099C58.6039 64.0099 58.5926 66.7655 58.6208 70.1671C58.649 73.5688 58.7082 76.3216 58.7505 76.3216Z" fill="#263238"/>
<path d="M58.0853 78.3441L47.115 74.09C46.6814 73.9218 46.3051 73.6403 46.0287 73.2772C45.7523 72.9141 45.5867 72.4838 45.5507 72.0349L44.7473 61.9032C44.7473 61.9032 44.8432 57.5921 42.0471 57.383L40.4658 57.9857C38.411 59.0363 37.9036 61.9195 38.1827 64.1429C38.5801 67.3029 38.7464 71.777 39.1889 74.5189C39.5554 76.7641 40.8801 78.7377 43.1689 79.316L56.6816 82.134L58.0853 78.3441Z" fill="#CFD8DC"/>
<path d="M44.9052 63.4479C44.9235 63.5237 44.9349 63.601 44.939 63.6787C44.9559 63.8443 44.9813 64.0669 45.0095 64.3465C45.0659 64.9411 45.1448 65.7772 45.2406 66.8034C45.3364 67.8296 45.4436 69.0812 45.5676 70.4494C45.5958 70.7942 45.6268 71.1444 45.6578 71.5028C45.6796 71.8674 45.7266 72.2302 45.7987 72.5887C45.8752 72.9513 46.0662 73.2822 46.3455 73.5362C46.6461 73.7908 46.9879 73.9962 47.3574 74.1443C50.3819 75.404 53.1695 76.4465 55.1933 77.1767L57.5977 78.0292L58.2516 78.26C58.3281 78.2843 58.4025 78.3142 58.4743 78.3495C58.3945 78.3355 58.3162 78.3146 58.2403 78.2871L57.5779 78.0808C57.0142 77.8962 56.1686 77.622 55.1595 77.2663C53.1216 76.5605 50.3311 75.5343 47.2954 74.28C46.9115 74.1247 46.5564 73.9101 46.2441 73.6448C45.9443 73.3707 45.7396 73.0142 45.6578 72.624C45.585 72.2602 45.5389 71.8919 45.5197 71.5218C45.4887 71.1607 45.4605 70.8105 45.4323 70.4657C45.3224 69.1083 45.2209 67.8595 45.1504 66.817C45.0799 65.7745 45.0095 64.9519 44.9644 64.3574C44.9446 64.0859 44.9306 63.8524 44.9221 63.6868C44.9093 63.6078 44.9036 63.5279 44.9052 63.4479Z" fill="#263238"/>
<path d="M38.6196 68.9563C38.6309 69.0008 38.6375 69.0463 38.6393 69.092L38.6759 69.483C38.7098 69.844 38.752 70.33 38.8056 70.9218C38.8591 71.5137 38.9437 72.2494 39.0536 73.0475C39.1615 73.9119 39.3262 74.7688 39.5469 75.613C39.6507 76.0479 39.8319 76.4621 40.0824 76.8374C40.3273 77.182 40.6016 77.5062 40.9027 77.8066C41.4157 78.3149 42.0082 78.7427 42.6587 79.0744C43.2651 79.3713 43.9154 79.5764 44.5867 79.6825C44.539 79.6884 44.4906 79.6884 44.4429 79.6825C44.3066 79.6738 44.171 79.6566 44.037 79.6309C43.5412 79.542 43.061 79.3857 42.6108 79.1667C41.942 78.8424 41.3326 78.4151 40.8068 77.9016C40.4952 77.5979 40.2122 77.2681 39.9612 76.9161C39.698 76.5304 39.5072 76.1031 39.3975 75.6537C39.1738 74.8031 39.0109 73.9386 38.9099 73.0665C38.8084 72.2521 38.7408 71.5408 38.6957 70.9327C38.6506 70.3246 38.6252 69.8305 38.6111 69.4884C38.6111 69.3309 38.6111 69.2006 38.6111 69.0948C38.6063 69.0485 38.6091 69.0017 38.6196 68.9563Z" fill="#263238"/>
<path d="M43.3098 76.0446C43.3386 75.8467 43.4066 75.6559 43.5099 75.4827C43.736 75.05 44.0494 74.6651 44.4317 74.3504C44.8141 74.0358 45.2577 73.7977 45.7367 73.6502C45.9309 73.5787 46.1377 73.5446 46.3455 73.5497C46.1611 73.6238 45.9729 73.689 45.7818 73.7452C45.3286 73.914 44.9084 74.1554 44.5388 74.4592C44.17 74.7636 43.8566 75.1251 43.6114 75.5288C43.4141 75.841 43.3324 76.0528 43.3098 76.0446Z" fill="#263238"/>
<path d="M45.4689 68.34C45.4928 68.3468 45.5156 68.3568 45.5366 68.3699L45.7339 68.4703C45.9883 68.5911 46.25 68.6971 46.5175 68.788C47.5038 69.1213 48.5616 69.2091 49.5926 69.0431C51.124 68.78 52.4922 67.9609 53.4148 66.7546C53.9662 66.0578 54.3119 65.2305 54.4154 64.3601C54.4666 63.9027 54.4166 63.4401 54.2688 63.0027C54.1129 62.5561 53.8412 62.1553 53.4796 61.838C53.1231 61.5166 52.6741 61.3065 52.1915 61.2353C51.9628 61.1959 51.7278 61.2069 51.5042 61.2676C51.2806 61.3283 51.0742 61.437 50.9005 61.5856C50.7432 61.7339 50.6522 61.9355 50.6468 62.1475C50.6517 62.3583 50.7268 62.562 50.861 62.7285C51.001 62.8894 51.1727 63.0219 51.3663 63.1184C51.5598 63.2148 51.7713 63.2733 51.9885 63.2905C52.7518 63.3821 53.5268 63.2877 54.2423 63.0159C54.9579 62.7441 55.5911 62.3036 56.084 61.7349C56.4577 61.2923 56.739 60.7844 56.9127 60.239C57.0423 59.8258 57.1125 59.3974 57.1213 58.9658C57.1244 58.6931 57.1037 58.4206 57.0593 58.1513C57.0424 58.0672 57.0283 57.9966 57.0198 57.9423C57.0174 57.9179 57.0174 57.8934 57.0198 57.869C57.1363 58.2199 57.1934 58.5865 57.1889 58.9549C57.1918 59.3929 57.1292 59.8291 57.0029 60.2499C56.6891 61.2641 56.0117 62.1382 55.0913 62.7164C54.171 63.2946 53.0675 63.5394 51.9772 63.4072C51.7445 63.3874 51.518 63.3235 51.311 63.2191C51.104 63.1148 50.9204 62.972 50.7708 62.7991C50.6178 62.6094 50.5327 62.3769 50.5284 62.1367C50.5287 61.8896 50.6299 61.6526 50.8103 61.477C50.9997 61.3141 51.2247 61.1944 51.4687 61.1267C51.7127 61.059 51.9693 61.0451 52.2196 61.086C52.7323 61.1592 53.2094 61.3819 53.5867 61.724C53.9683 62.0562 54.2539 62.4781 54.4154 62.9484C54.5689 63.4034 54.6207 63.8845 54.5676 64.3601C54.4576 65.2494 54.1002 66.0936 53.5331 66.8034C52.7507 67.8318 51.64 68.585 50.371 68.9478C49.102 69.3106 47.7445 69.2631 46.5062 68.8124C46.1404 68.6996 45.7916 68.5408 45.4689 68.34Z" fill="white"/>
<path d="M38.2813 65.6388C38.3289 65.5575 38.3898 65.4842 38.4617 65.4216C38.6419 65.238 38.8401 65.0716 39.0536 64.9248C39.7732 64.4486 40.6102 64.163 41.4805 64.0968C41.958 64.045 42.4409 64.0643 42.9124 64.1538C43.2956 64.2304 43.6663 64.3565 44.0145 64.5284C44.2482 64.6419 44.4725 64.7726 44.6853 64.9194C44.7677 64.968 44.8418 65.0284 44.9052 65.0985C44.8883 65.1203 44.5613 64.8814 43.9694 64.618C43.1978 64.2734 42.3421 64.1418 41.4974 64.238C40.6493 64.3024 39.8305 64.5662 39.1128 65.0062C38.5688 65.3565 38.3011 65.6578 38.2813 65.6388Z" fill="white"/>
<path d="M40.0374 58.3929C40.3048 58.6355 40.6031 58.8444 40.9252 59.0146C41.277 59.1883 41.6594 59.297 42.0527 59.335C42.5315 59.3812 43.0148 59.316 43.462 59.1449C43.9005 58.9648 44.2873 58.6854 44.5895 58.3305C44.839 58.0343 45.0301 57.6966 45.1532 57.3341C45.2546 56.9938 45.3123 56.6428 45.3252 56.2889C45.3526 56.3825 45.365 56.4795 45.3618 56.5767C45.3665 56.843 45.3295 57.1084 45.2519 57.364C45.137 57.7455 44.9454 58.1015 44.6882 58.4119C44.3792 58.8013 43.9686 59.1049 43.4983 59.2918C43.0279 59.4787 42.5146 59.5423 42.0104 59.4761C41.6017 59.4315 41.2061 59.3098 40.8463 59.1178C40.6041 58.9897 40.3835 58.8267 40.1924 58.6345C40.1257 58.5639 40.0732 58.482 40.0374 58.3929Z" fill="white"/>
<path d="M49.5983 75.0538C49.5988 74.9863 49.6063 74.9189 49.6208 74.8529C49.6602 74.6643 49.7256 74.4817 49.8153 74.3099C50.1737 73.6776 50.7558 73.1901 51.4558 72.9362C52.486 72.5417 53.6262 72.5023 54.6832 72.8249C55.2638 72.9905 55.929 73.1968 56.3744 73.7425C56.4864 73.8819 56.5571 74.0479 56.5789 74.2228C56.6007 74.3978 56.5729 74.5752 56.4984 74.7361C56.3283 75.0502 56.0532 75.2998 55.7176 75.4447C55.3936 75.5992 55.0388 75.6844 54.6775 75.6945C54.3188 75.7112 53.9654 75.6055 53.6797 75.3958C53.5478 75.2874 53.4403 75.1542 53.3637 75.0044C53.2871 74.8545 53.2431 74.6912 53.2344 74.5244C53.2159 74.2127 53.2668 73.9007 53.3837 73.6095C53.8085 72.6198 54.6176 71.8289 55.6387 71.4051C56.3162 71.1143 57.0583 70.9911 57.7978 71.0467C58.067 71.0664 58.3324 71.1203 58.587 71.2069C58.587 71.2259 58.3051 71.1363 57.7921 71.101C57.1796 71.069 56.5666 71.1577 55.9909 71.3617C55.4151 71.5657 54.8886 71.8807 54.4436 72.2874C54.0304 72.6686 53.7082 73.1317 53.4993 73.6448C53.39 73.9189 53.3429 74.2123 53.3612 74.5054C53.3694 74.6539 53.4091 74.7992 53.4779 74.9323C53.5468 75.0654 53.6433 75.1834 53.7614 75.2791C54.0192 75.4698 54.3388 75.566 54.6634 75.5506C55.0023 75.5421 55.3351 75.4624 55.6387 75.3171C55.9451 75.1855 56.1971 74.959 56.3546 74.6737C56.4181 74.535 56.4417 74.3824 56.4228 74.232C56.404 74.0815 56.3434 73.9387 56.2475 73.8185C56.0509 73.5795 55.799 73.388 55.5118 73.2593C55.2334 73.131 54.9439 73.0265 54.6465 72.9471C53.6175 72.6264 52.5056 72.6541 51.4952 73.0258C50.8105 73.2645 50.2341 73.7265 49.866 74.3316C49.744 74.5599 49.654 74.8027 49.5983 75.0538Z" fill="white"/>
<path d="M42.2923 78.8681C42.2923 78.8409 42.7094 78.8084 43.3436 78.5966C44.1716 78.3158 44.9133 77.8397 45.5012 77.2118C46.0891 76.584 46.5044 75.8243 46.7091 75.0022C46.8698 74.3724 46.8642 73.9624 46.8923 73.9651C46.9121 74.0589 46.9168 74.155 46.9064 74.2502C46.9 74.5104 46.8679 74.7695 46.8106 75.0239C46.6279 75.8725 46.2134 76.6588 45.6099 77.3016C45.0064 77.9445 44.2358 78.4206 43.3775 78.6808C43.1205 78.7613 42.8563 78.8186 42.5882 78.8518C42.4909 78.871 42.3912 78.8764 42.2923 78.8681Z" fill="white"/>
<path d="M38.7351 70.9924C38.7768 70.9698 38.8213 70.9525 38.8676 70.9408C38.9578 70.9137 39.0875 70.8757 39.2594 70.8322C39.7473 70.7085 40.2523 70.6591 40.7561 70.6856C41.106 70.7111 41.4489 70.7927 41.7708 70.9272C42.1457 71.083 42.4721 71.33 42.7179 71.6439C42.9878 72.0001 43.1185 72.4366 43.0871 72.8765C43.069 73.1105 42.9947 73.3372 42.8701 73.5389C42.7439 73.7514 42.5445 73.9147 42.3064 74.0004C42.1808 74.0416 42.0462 74.0503 41.9161 74.0255C41.7859 74.0007 41.6649 73.9434 41.5651 73.8592C41.3959 73.6796 41.3042 73.4447 41.3086 73.2022C41.294 72.7697 41.3828 72.3396 41.5679 71.9453C41.8251 71.3833 42.2699 70.9202 42.8317 70.6295C43.3934 70.3388 44.0399 70.2372 44.6684 70.3408C44.8036 70.3611 44.9366 70.3928 45.0659 70.4358C45.1532 70.4684 45.1983 70.4874 45.1955 70.4929C45.1927 70.4983 45.0067 70.4358 44.66 70.3951C44.17 70.338 43.673 70.3996 43.214 70.5743C42.534 70.8371 41.9898 71.3486 41.7004 71.9969C41.5282 72.3736 41.4463 72.7828 41.4608 73.1941C41.4548 73.4017 41.5314 73.6038 41.675 73.7588C41.7558 73.825 41.8532 73.8699 41.9574 73.8889C42.0617 73.9079 42.1693 73.9005 42.2697 73.8674C42.4785 73.793 42.6539 73.6509 42.7658 73.4656C42.878 73.2826 42.9455 73.0774 42.9631 72.8656C42.9927 72.4578 42.8741 72.0528 42.6277 71.72C42.3989 71.4211 42.0927 71.1853 41.7398 71.0358C41.4314 70.9009 41.1018 70.8165 40.7646 70.7861C40.2717 70.7506 39.776 70.7845 39.2932 70.8865C38.9296 70.9544 38.7408 71.0032 38.7351 70.9924Z" fill="white"/>
<path d="M54.9312 77.136C53.7586 76.498 52.6114 76.0066 51.3853 75.4718C50.1592 74.937 48.9556 74.2447 48.1523 73.2022C46.6387 71.2367 46.8106 68.3997 45.2632 66.4613C45.3646 67.7645 45.4652 69.0685 45.5648 70.3734C45.6578 71.5679 45.4689 72.7516 46.2666 73.5633C46.9403 74.2474 48.2538 74.7714 49.1839 75.0673C51.0527 75.6618 53.0652 76.5442 54.9312 77.136Z" fill="black"/>
<path d="M74.0079 92.0268C74.0079 92.0268 83.1884 94.4701 83.5576 94.6004C84.1213 94.7878 84.017 96.7397 83.1573 96.7071C82.7486 96.6936 76.1107 96.946 75.2651 96.8972C74.4195 96.8483 71.8827 95.8845 71.8827 95.8845L74.0079 92.0268Z" fill="#CFD8DC"/>
<path d="M77.8216 95.4013C77.935 95.0763 78.0706 94.7589 78.2275 94.4511C78.4251 94.1664 78.6416 93.8944 78.8758 93.6367C78.5491 93.8089 78.278 94.0644 78.0921 94.3752C77.9061 94.6859 77.8126 95.04 77.8216 95.3986V95.4013Z" fill="#263238"/>
<path d="M76.8633 94.9832C76.9084 94.9832 77.0014 94.5733 77.2466 94.1117C77.4918 93.6502 77.7793 93.3272 77.7483 93.2973C77.4804 93.4983 77.262 93.7539 77.109 94.0459C76.956 94.3379 76.872 94.6589 76.8633 94.9859V94.9832Z" fill="#263238"/>
<path d="M75.981 94.7525C76.026 94.4361 76.0977 94.1238 76.1952 93.8186C76.3392 93.5306 76.5059 93.2538 76.6941 92.9906C76.4031 93.1793 76.1788 93.4492 76.0514 93.764C75.9239 94.0789 75.8994 94.4238 75.981 94.7525Z" fill="#263238"/>
<path d="M76.1304 93.6095C76.2113 93.3997 76.2449 93.1758 76.2291 92.9525C76.2262 92.7092 76.1949 92.467 76.136 92.2304C76.1007 92.0906 76.0545 91.9536 75.9979 91.8204C75.9713 91.7362 75.9205 91.6609 75.8514 91.6032C75.805 91.5702 75.7481 91.5537 75.6905 91.5567C75.6329 91.5596 75.5781 91.5819 75.5357 91.6195C75.4645 91.6854 75.4212 91.7744 75.4145 91.8693C75.4075 91.947 75.4075 92.0251 75.4145 92.1028C75.4153 92.2483 75.4342 92.3932 75.4708 92.5344C75.5318 92.7712 75.6267 92.9988 75.7527 93.2104C75.8537 93.4145 75.9932 93.5986 76.1642 93.7534C76.1868 93.7534 76.0318 93.5335 75.8485 93.1724C75.7415 92.9635 75.661 92.7429 75.6089 92.5154C75.5793 92.3825 75.5641 92.2469 75.5638 92.1109C75.5638 91.9752 75.5639 91.8069 75.6484 91.7417C75.665 91.7272 75.6866 91.7192 75.709 91.7192C75.7314 91.7192 75.753 91.7272 75.7696 91.7417C75.8154 91.785 75.8502 91.838 75.8711 91.8964C75.9251 92.024 75.9712 92.1546 76.0092 92.2874C76.0737 92.5127 76.1144 92.7437 76.1304 92.9769C76.1473 93.357 76.105 93.6068 76.1304 93.6095Z" fill="#263238"/>
<path d="M76.1191 93.5199C75.9321 93.4447 75.7293 93.4131 75.5272 93.4276C75.3078 93.4275 75.0892 93.4531 74.8761 93.5036C74.7448 93.5323 74.6179 93.577 74.4984 93.6366C74.4232 93.6735 74.3625 93.7328 74.3253 93.8058C74.2882 93.8787 74.2768 93.9613 74.2926 94.0411C74.3137 94.1174 74.3553 94.1869 74.4132 94.2426C74.4711 94.2984 74.5433 94.3385 74.6224 94.3588C74.7575 94.3914 74.8989 94.3914 75.0339 94.3588C75.2512 94.311 75.4551 94.2184 75.6315 94.0873C75.7986 93.9795 75.943 93.8423 76.0571 93.6828C75.8876 93.7783 75.7247 93.8844 75.5695 94.0004C75.399 94.1131 75.2076 94.1933 75.0058 94.2366C74.8938 94.2637 74.7766 94.2637 74.6647 94.2366C74.6118 94.2237 74.5633 94.1976 74.5242 94.1609C74.4851 94.1242 74.4567 94.0782 74.442 94.0276C74.4334 93.9778 74.442 93.9267 74.4665 93.8821C74.4909 93.8375 74.5298 93.8018 74.5773 93.7805C74.682 93.725 74.7938 93.683 74.9099 93.6556C75.1122 93.6001 75.3201 93.5655 75.53 93.5525C75.888 93.509 76.1135 93.5443 76.1191 93.5199Z" fill="#263238"/>
<path d="M79.2309 95.4963C79.2703 95.2261 79.3315 94.9592 79.4142 94.6982C79.543 94.4556 79.6929 94.2241 79.8623 94.0059C79.595 94.1463 79.3861 94.3713 79.2711 94.6428C79.156 94.9144 79.1419 95.2159 79.2309 95.4963Z" fill="#263238"/>
<path d="M72.8269 95.9063C72.9381 95.974 73.0574 96.0287 73.1821 96.0691C73.5153 96.191 73.856 96.2925 74.2024 96.3732C75.3537 96.6151 76.5309 96.7226 77.7089 96.6935C79.0844 96.6773 80.3246 96.6175 81.2237 96.5822L82.2864 96.5279C82.4169 96.5258 82.547 96.5131 82.6754 96.4899C82.5458 96.4703 82.4145 96.464 82.2836 96.4709H81.2209L77.7089 96.5361C76.5418 96.5649 75.3749 96.4739 74.2278 96.2646C73.3484 96.0936 72.8382 95.8764 72.8269 95.9063Z" fill="#263238"/>
<path d="M72.5563 96.1071C72.5563 96.1261 72.8185 95.9849 73.2441 95.8058C73.7848 95.5598 74.3866 95.4657 74.9804 95.5343C75.5643 95.6562 76.0915 95.9572 76.4827 96.3922C76.6456 96.5775 76.8217 96.7517 77.0098 96.9134C76.8889 96.6975 76.7381 96.4984 76.5617 96.3216C76.3807 96.119 76.1765 95.9368 75.9528 95.7786C75.6727 95.5789 75.347 95.4467 75.0029 95.3931C74.3799 95.3204 73.7488 95.4352 73.1962 95.7216C72.9627 95.816 72.7466 95.9462 72.5563 96.1071Z" fill="#263238"/>
<path d="M64.2525 89.5862C64.2525 89.5862 55.5654 95.0647 55.2553 95.2873C54.7874 95.6266 55.323 97.2474 56.1348 96.9677C56.5181 96.8347 63.8072 94.8801 64.5908 94.5869C65.3744 94.2937 67.4855 92.6485 67.4855 92.6485L64.2525 89.5862Z" fill="#CFD8DC"/>
<path d="M61.6735 93.919C61.5687 93.5745 61.3676 93.2645 61.0922 93.0227C60.8168 92.7809 60.4777 92.6167 60.1119 92.548C60.4174 92.7244 60.7102 92.9203 60.9885 93.1344C61.2336 93.3819 61.4623 93.644 61.6735 93.919Z" fill="#263238"/>
<path d="M62.4514 93.2403C62.3409 92.9304 62.1605 92.648 61.9231 92.4133C61.6858 92.1786 61.3974 91.9975 61.0787 91.8829C61.0562 91.9209 61.4367 92.1544 61.8116 92.5127C62.1865 92.8711 62.4119 93.262 62.4514 93.2403Z" fill="#263238"/>
<path d="M63.235 92.7571C63.2338 92.4155 63.0989 92.0868 62.8573 91.8368C62.6553 91.5608 62.3539 91.3672 62.0117 91.2938C62.2731 91.4904 62.519 91.7055 62.7474 91.9372C62.9322 92.1976 63.0953 92.4718 63.235 92.7571Z" fill="#263238"/>
<path d="M62.7333 91.7173C62.7558 91.7173 62.6374 91.4811 62.5388 91.0902C62.4795 90.8635 62.4445 90.6315 62.4345 90.3979C62.4248 90.2605 62.4248 90.1226 62.4345 89.9852C62.4334 89.9233 62.45 89.8623 62.4824 89.8088C62.4946 89.7903 62.5138 89.7772 62.5359 89.7721C62.558 89.767 62.5813 89.7704 62.6008 89.7816C62.6994 89.8196 62.7502 89.9825 62.7981 90.1128C62.8395 90.242 62.8678 90.3748 62.8827 90.5092C62.9045 90.7418 62.8969 90.9761 62.8601 91.2069C62.8009 91.6033 62.7192 91.8449 62.7417 91.853C62.8579 91.6588 62.9344 91.445 62.9672 91.2232C63.0213 90.9853 63.0403 90.7413 63.0236 90.4983C63.0123 90.353 62.9849 90.2092 62.9419 90.0694C62.9186 89.9944 62.8904 89.9209 62.8573 89.8495C62.8197 89.7606 62.7495 89.6881 62.66 89.6459C62.6077 89.6225 62.5486 89.6175 62.4929 89.6319C62.4372 89.6463 62.3886 89.6791 62.3556 89.7246C62.3089 89.8001 62.2846 89.8865 62.2851 89.9744C62.2541 90.3611 62.3 90.7499 62.4204 91.12C62.4797 91.3382 62.5864 91.5417 62.7333 91.7173Z" fill="#263238"/>
<path d="M62.7023 91.6277C62.7023 91.6494 62.9165 91.5517 63.266 91.4675C63.4703 91.4203 63.679 91.3931 63.8889 91.3861C64.0087 91.3782 64.1291 91.3855 64.2469 91.4078C64.2988 91.4146 64.347 91.4373 64.3845 91.4725C64.4221 91.5077 64.4469 91.5535 64.4555 91.6032C64.4578 91.6572 64.4453 91.7108 64.419 91.7585C64.3927 91.8062 64.3538 91.8463 64.3061 91.8747C64.2091 91.9335 64.0989 91.9688 63.9848 91.9779C63.7788 91.9973 63.5708 91.977 63.3731 91.9182C63.1894 91.8519 63.001 91.7983 62.8094 91.758C62.9684 91.8803 63.1502 91.9725 63.3449 92.0295C63.5541 92.1066 63.7782 92.139 64.0017 92.1245C64.1407 92.1175 64.2756 92.0763 64.3935 92.005C64.4632 91.9638 64.5201 91.9052 64.5583 91.8355C64.5965 91.7657 64.6145 91.6874 64.6105 91.6087C64.6006 91.5278 64.5636 91.4523 64.5051 91.3935C64.4466 91.3347 64.3698 91.2959 64.2864 91.2829C64.1543 91.2603 64.0197 91.2549 63.8861 91.2666C63.6669 91.2807 63.4502 91.3199 63.2406 91.3833C63.044 91.4238 62.8598 91.5074 62.7023 91.6277Z" fill="#263238"/>
<path d="M57.2397 96.6664C57.2397 96.68 57.3863 96.5822 57.4539 96.3433C57.5214 96.0312 57.463 95.706 57.2904 95.4339C57.2069 95.2882 57.1127 95.1485 57.0086 95.0158C56.9238 94.9026 56.8244 94.8005 56.7126 94.7117C56.6325 94.648 56.5342 94.6092 56.4307 94.6004C56.3574 94.6004 56.3208 94.614 56.3208 94.6221C56.3208 94.6303 56.4758 94.6357 56.6365 94.7932C56.7313 94.8855 56.8154 94.9874 56.8874 95.0972C56.9885 95.2283 57.0825 95.3642 57.1692 95.5044C57.3249 95.748 57.3923 96.0345 57.3609 96.3189C57.3278 96.437 57.2873 96.553 57.2397 96.6664Z" fill="#263238"/>
<path d="M60.3599 94.4213C60.3716 94.2743 60.3502 94.1267 60.2972 93.9885C60.2442 93.8503 60.1608 93.7247 60.0527 93.6204C59.9659 93.499 59.8526 93.3974 59.7206 93.3228C59.5886 93.2482 59.4412 93.2025 59.2889 93.1887C59.5192 93.3462 59.7352 93.5224 59.9343 93.7154C60.0966 93.9387 60.2389 94.1749 60.3599 94.4213Z" fill="#263238"/>
<path d="M66.592 92.9389C66.457 93.0113 66.3287 93.0949 66.2087 93.1887C65.8644 93.4189 65.5068 93.6301 65.1376 93.8212C64.5912 94.1003 64.0262 94.3443 63.4464 94.5515C62.7868 94.7877 62.0371 95.0103 61.2704 95.2275C59.706 95.6619 58.291 96.0582 57.2707 96.3542L56.0558 96.7207C55.9059 96.759 55.7597 96.8098 55.619 96.8727C55.7726 96.8526 55.9243 96.8208 56.0728 96.7777L57.2932 96.4492C58.3221 96.1777 59.7398 95.7976 61.3042 95.3633C62.085 95.1434 62.8263 94.9153 63.4859 94.671C64.0729 94.456 64.6428 94.2002 65.1911 93.9054C65.5594 93.7045 65.9118 93.4776 66.2453 93.2267C66.369 93.1402 66.4849 93.0439 66.592 92.9389Z" fill="#263238"/>
<path d="M66.9134 93.0502C66.6796 92.9511 66.4315 92.887 66.1777 92.8602C65.5601 92.7501 64.9224 92.8259 64.3512 93.0774C64.0424 93.233 63.7774 93.4585 63.5789 93.7344C63.4154 93.9521 63.2783 94.1871 63.1702 94.4348C63.0571 94.6546 62.9765 94.8885 62.9306 95.1298C63.0582 94.92 63.1712 94.7024 63.2688 94.4782C63.5039 93.9481 63.9114 93.5061 64.4301 93.2185C64.9757 92.9822 65.5794 92.8984 66.1721 92.9769C66.623 93.0122 66.9077 93.072 66.9134 93.0502Z" fill="#263238"/>
<path d="M82.3061 76.2265C82.3061 76.2265 84.9134 77.1224 84.9218 79.9377C84.9444 85.3266 73.6133 91.2693 73.6133 91.2693L58.5335 81.648L57.5892 81.2788C57.5892 81.2788 77.9541 73.9162 82.3061 76.2265Z" fill="#263238"/>
<path d="M66.1721 86.5075C66.3109 86.4334 66.4429 86.3481 66.5667 86.2523C66.8119 86.0786 67.1642 85.8234 67.5955 85.5003C68.4608 84.8596 69.6334 83.9475 70.899 82.9023C72.1645 81.857 73.2751 80.877 74.0643 80.1521C74.4589 79.7911 74.7746 79.4924 74.9917 79.2834C75.1089 79.1815 75.2164 79.0698 75.313 78.9495C75.1833 79.037 75.0616 79.1351 74.9494 79.2427L73.991 80.0761C73.1821 80.7793 72.0602 81.7485 70.7975 82.7909C69.5347 83.8334 68.3734 84.7565 67.5306 85.4189L66.53 86.2062C66.4026 86.2973 66.2829 86.3981 66.1721 86.5075Z" fill="#455A64"/>
<path d="M78.0499 78.2409C77.0638 78.1404 76.0765 78.4206 75.3045 79.0201C75.3299 79.0608 75.8683 78.7214 76.6406 78.5097C77.4129 78.2979 78.0499 78.2871 78.0499 78.2409Z" fill="#455A64"/>
<path d="M76.7505 77.3912C76.4016 77.5338 76.0946 77.757 75.8567 78.0411C75.6187 78.3253 75.4572 78.6615 75.3863 79.0201C75.4314 79.0201 75.5949 78.583 75.9754 78.135C76.3559 77.6871 76.7759 77.4292 76.7505 77.3912Z" fill="#455A64"/>
<path d="M83.1348 94.4619C83.1348 94.4456 82.9544 94.4104 82.7458 94.576C82.5001 94.7966 82.3458 95.0956 82.3117 95.4175C82.2623 95.734 82.3093 96.0575 82.447 96.3487C82.5542 96.5686 82.6725 96.6718 82.6866 96.6609C82.6495 96.5402 82.6033 96.4223 82.5485 96.308C82.4498 96.0289 82.4209 95.7312 82.464 95.4393C82.4974 95.1484 82.6212 94.874 82.8191 94.652C82.9798 94.4918 83.1376 94.4864 83.1348 94.4619Z" fill="#263238"/>
<path d="M78.8363 67.417L73.4668 80.5295L50.3452 80.8933L49.9168 79.6879L58.0205 79.4056L61.9159 67.7726L78.8363 67.417Z" fill="#455A64"/>
<path d="M68.038 73.1018C68.2156 73.016 68.4151 72.9813 68.6126 73.002C68.8101 73.0227 68.9972 73.0979 69.1514 73.2186C69.2823 73.3372 69.373 73.491 69.4118 73.66C69.4505 73.8291 69.4354 74.0054 69.3684 74.166C69.296 74.3264 69.1784 74.464 69.029 74.5634C68.8795 74.6627 68.7042 74.7197 68.5228 74.728C68.3319 74.7398 68.1422 74.6913 67.9825 74.5899C67.8228 74.4885 67.7017 74.3397 67.6378 74.166C67.5774 73.9718 67.5825 73.7642 67.6524 73.573C67.7223 73.3817 67.8534 73.2168 68.0267 73.1018" fill="#EBEBEB"/>
<path d="M75.0396 91.9264C75.0396 91.9264 53.7361 78.4663 52.8679 78.1867C51.9998 77.9071 49.8858 76.5768 47.7802 77.136C45.6747 77.6953 43.7805 79.5169 42.8363 82.1774C42.2951 83.6977 42.0414 86.2904 41.9202 88.2369C41.7587 90.5645 42.5419 92.8616 44.1047 94.6439C44.797 95.4755 45.7165 96.1045 46.7599 96.4601C46.9825 96.528 47.2137 96.585 47.4504 96.6338C51.4783 97.4754 55.6246 95.7325 57.8795 92.415L58.3756 91.6874C58.3756 91.6874 72.3139 96.6175 72.531 96.5497L75.0396 91.9264Z" fill="#263238"/>
<path d="M48.685 88.2206C48.7226 88.2388 48.7612 88.2552 48.8006 88.2695L49.1501 88.4025L50.5003 88.9047L55.5203 90.7264C57.6512 91.492 60.2049 92.4041 63.0715 93.4086C65.9381 94.4131 69.1119 95.5126 72.5056 96.6175L72.5648 96.6392L74.2616 93.5199L75.1072 91.9589L75.1382 91.8992L75.079 91.8639L58.8294 81.9277L53.9475 78.9631L52.6227 78.1649L52.276 77.9613C52.1971 77.9152 52.1548 77.8962 52.1548 77.8962L52.2676 77.9749L52.6058 78.1894L53.9165 79.0038L58.7871 82.0145L75.0114 91.9888L74.9832 91.891C74.7154 92.3878 74.4195 92.9172 74.1376 93.452L72.4746 96.5144L72.5676 96.4791C69.1852 95.3768 66.0001 94.2801 63.1307 93.2837L55.5682 90.6341L50.52 88.8477L49.1614 88.3699L48.8062 88.2505L48.685 88.2206Z" fill="#455A64"/>
<path d="M50.8949 40.4263C51.2585 39.4788 52.0618 39.0689 53.0793 38.8327C53.5911 38.718 54.1241 38.724 54.633 38.8502C55.1419 38.9764 55.6116 39.219 56.0023 39.5576C56.5181 40.0109 56.8958 40.6435 57.5328 40.915C58.5842 41.3738 59.9287 40.7032 60.9152 41.2652C61.2116 41.4333 61.4383 41.6951 61.5569 42.0061C61.6754 42.3171 61.6785 42.658 61.5656 42.9709C61.4526 43.2838 61.2306 43.5494 60.9374 43.7225C60.6441 43.8956 60.2976 43.9655 59.9569 43.9203C60.6418 44.2298 60.7687 45.2234 60.2979 45.7935C59.8272 46.3636 58.9563 46.5183 58.2262 46.3202C57.5066 46.0814 56.8683 45.6581 56.38 45.0958C55.867 44.5528 55.416 43.9691 54.8579 43.4669C54.3222 42.9427 53.6114 42.6177 52.851 42.5493C51.8278 42.5113 50.8779 43.1764 50.3452 44.0153C49.8125 44.8542 49.6067 45.8505 49.4573 46.8278C49.308 47.8052 49.1952 48.7988 48.8034 49.711C48.7583 49.8196 48.6907 49.9363 48.5751 49.9607C48.4032 49.996 48.2791 49.8141 48.2115 49.6594C47.4402 47.9159 47.0322 46.0434 47.0107 44.1483C46.9966 43.0624 47.1263 42.0226 47.8338 41.162C48.5413 40.3014 50.1733 39.7666 50.8864 40.4127" fill="#263238"/>
<path d="M48.4934 44.8053L46.9262 55.7677C46.8634 56.2104 46.8947 56.6608 47.0184 57.0915C47.142 57.5221 47.3554 57.924 47.6454 58.2727C47.9355 58.6214 48.2962 58.9096 48.7056 59.1198C49.1149 59.3299 49.5645 59.4577 50.0267 59.4952C50.9019 59.5685 51.7728 59.3148 52.4591 58.7867C53.1454 58.2586 53.5945 57.4965 53.7135 56.6582C53.8291 55.8437 53.9277 55.146 53.9475 55.0619C53.9475 55.0619 56.8817 55.184 57.4849 52.4502C57.7668 51.1281 58.1473 48.359 58.4545 45.8505C58.6095 44.5524 58.2521 43.2456 57.4532 42.1895C56.6543 41.1334 55.4724 40.4052 54.142 40.1494L53.8601 40.0978C50.8582 39.6852 48.8288 41.9113 48.4934 44.8053Z" fill="#FFBE9D"/>
<path d="M53.9447 55.0239C52.6253 54.7907 51.4078 54.1849 50.4467 53.2837C50.4467 53.2837 50.9146 55.423 53.8037 55.727L53.9447 55.0239Z" fill="#EB996E"/>
<path d="M57.2284 47.5282C57.2085 47.6304 57.1477 47.721 57.0591 47.7804C56.9705 47.8398 56.8613 47.8633 56.7549 47.8459C56.7025 47.8402 56.6517 47.8245 56.6058 47.7995C56.5599 47.7745 56.5196 47.7409 56.4875 47.7006C56.4554 47.6603 56.4321 47.6141 56.4189 47.5649C56.4058 47.5157 56.4031 47.4645 56.411 47.4142C56.4303 47.3115 56.4908 47.2203 56.5794 47.1604C56.6681 47.1004 56.7777 47.0765 56.8845 47.0939C56.9371 47.0999 56.9878 47.1159 57.0338 47.1412C57.0797 47.1665 57.12 47.2003 57.152 47.2409C57.1841 47.2814 57.2074 47.3277 57.2205 47.3771C57.2337 47.4265 57.2363 47.4779 57.2284 47.5282Z" fill="#263238"/>
<path d="M57.5497 47.0776C57.4877 47.1211 57.2256 46.8414 56.7887 46.7573C56.3518 46.6731 55.9854 46.8251 55.9431 46.7573C55.9008 46.6894 55.9967 46.6487 56.1573 46.5781C56.3715 46.4864 56.6103 46.4626 56.8394 46.5102C57.067 46.5522 57.2746 46.6635 57.4314 46.8278C57.5526 46.9582 57.5779 47.0613 57.5497 47.0776Z" fill="#263238"/>
<path d="M52.9102 46.8441C52.891 46.9468 52.8304 47.038 52.7418 47.098C52.6531 47.158 52.5435 47.1818 52.4367 47.1644C52.3842 47.1581 52.3335 47.1418 52.2876 47.1165C52.2417 47.0911 52.2015 47.0573 52.1693 47.0169C52.137 46.9765 52.1134 46.9304 52.0998 46.8811C52.0862 46.8319 52.0829 46.7806 52.09 46.7301C52.1112 46.6284 52.1722 46.5384 52.2603 46.4788C52.3484 46.4192 52.457 46.3945 52.5635 46.4097C52.6162 46.4157 52.667 46.4318 52.7131 46.457C52.7592 46.4823 52.7996 46.5161 52.8319 46.5566C52.8642 46.597 52.8878 46.6433 52.9012 46.6927C52.9147 46.7421 52.9177 46.7936 52.9102 46.8441Z" fill="#263238"/>
<path d="M53.2344 46.331C53.1723 46.3718 52.9102 46.0921 52.4733 46.008C52.0364 45.9238 51.67 46.0758 51.6277 46.008C51.5854 45.9401 51.6813 45.8994 51.8419 45.8288C52.0565 45.7385 52.2949 45.7148 52.5241 45.7609C52.7515 45.8053 52.9592 45.9162 53.1188 46.0786C53.2372 46.2252 53.2625 46.312 53.2344 46.331Z" fill="#263238"/>
<path d="M54.173 49.7544C54.4178 49.7281 54.6651 49.7327 54.9086 49.768C55.0242 49.768 55.1341 49.768 55.168 49.7055C55.2038 49.5978 55.2038 49.482 55.168 49.3743C55.1172 49.1028 55.0637 48.7988 55.0073 48.4893C54.7903 47.2351 54.6578 46.2143 54.7085 46.2061C54.7593 46.198 54.9904 47.2079 55.1962 48.4621C55.2469 48.7716 55.2976 49.0648 55.3427 49.3472C55.3868 49.4909 55.3758 49.645 55.3117 49.7816C55.2878 49.8158 55.2561 49.8444 55.2189 49.8651C55.1818 49.8858 55.1403 49.8981 55.0975 49.901C55.033 49.9098 54.9675 49.9098 54.903 49.901C54.6543 49.8816 54.409 49.8324 54.173 49.7544Z" fill="#263238"/>
<path d="M52.8256 49.8033C52.8989 49.8033 52.8031 50.2702 53.1413 50.672C53.4796 51.0738 53.9869 51.1227 53.9869 51.1878C53.9869 51.253 53.8573 51.253 53.6431 51.2177C53.3639 51.1681 53.1116 51.026 52.9299 50.8159C52.7578 50.6124 52.674 50.3527 52.696 50.091C52.7185 49.8956 52.7946 49.7924 52.8256 49.8033Z" fill="#263238"/>
<path d="M53.6882 44.6994C53.6233 44.808 53.1977 44.6696 52.6706 44.6289C52.1435 44.5881 51.7038 44.6452 51.6559 44.5284C51.6362 44.4741 51.732 44.3818 51.9209 44.3031C52.1715 44.2078 52.4418 44.1706 52.7101 44.1945C52.98 44.2143 53.241 44.2963 53.4711 44.4334C53.6431 44.542 53.7135 44.6506 53.6882 44.6994Z" fill="#263238"/>
<path d="M57.6399 45.8288C57.5441 45.9102 57.2651 45.7528 56.9014 45.6767C56.5378 45.6007 56.2193 45.6143 56.1714 45.5003C56.1489 45.446 56.2165 45.3591 56.3715 45.2939C56.5734 45.2173 56.7951 45.2031 57.0057 45.2532C57.2182 45.2964 57.4109 45.4039 57.5554 45.56C57.6597 45.6822 57.685 45.788 57.6399 45.8288Z" fill="#263238"/>
<path d="M48.3045 46.8794C48.2594 46.8496 46.4639 45.9456 46.1369 47.8324C45.81 49.7192 47.8451 49.6458 47.8563 49.5915C47.8676 49.5372 48.3045 46.8794 48.3045 46.8794Z" fill="#FFBE9D"/>
<path d="M47.3828 48.7798C47.3828 48.7798 47.3462 48.7988 47.2842 48.8151C47.1971 48.8351 47.1054 48.8225 47.0276 48.7798C46.9135 48.6828 46.8287 48.558 46.782 48.4185C46.7354 48.279 46.7287 48.1299 46.7627 47.9871C46.7853 47.824 46.846 47.6681 46.9403 47.531C46.967 47.4747 47.0072 47.4254 47.0577 47.3871C47.1082 47.3489 47.1675 47.3228 47.2306 47.3111C47.2719 47.3077 47.313 47.3184 47.347 47.3412C47.381 47.364 47.4056 47.3975 47.4166 47.436C47.4335 47.4903 47.4166 47.5283 47.4166 47.531C47.4166 47.5337 47.4645 47.5065 47.4617 47.4278C47.4587 47.3795 47.4389 47.3336 47.4053 47.2975C47.3825 47.2732 47.3547 47.2536 47.3237 47.24C47.2926 47.2265 47.259 47.2193 47.225 47.2188C47.1422 47.2211 47.0615 47.2438 46.9905 47.2846C46.9194 47.3255 46.8604 47.3832 46.8191 47.4522C46.7071 47.6025 46.6345 47.7767 46.6077 47.9599C46.5541 48.3427 46.695 48.7309 46.9656 48.8531C47.0157 48.8764 47.0707 48.8885 47.1263 48.8885C47.1819 48.8885 47.2369 48.8764 47.287 48.8531C47.3715 48.8259 47.3884 48.7852 47.3828 48.7798Z" fill="#EB996E"/>
<path d="M59.1592 45.4107C58.4968 45.4451 57.8355 45.3277 57.2293 45.0681C56.6232 44.8086 56.0897 44.4143 55.6725 43.9175C55.1088 43.2171 54.7339 42.3022 53.9193 41.8787C53.6388 41.7458 53.3336 41.6677 53.0216 41.6491C52.7095 41.6304 52.3967 41.6716 52.1012 41.7701C51.5132 41.9726 50.9741 42.2886 50.5172 42.6986C50.7765 44.1972 50.0859 45.6849 49.4122 47.0423C49.3542 47.2024 49.242 47.3391 49.0937 47.4305C48.8288 47.5581 48.5131 47.3572 48.3524 47.1156C48.1273 46.7106 48.0293 46.2512 48.0706 45.7935C48.0766 44.7505 48.2969 43.7189 48.7188 42.7583C49.1473 41.7949 49.8598 40.9737 50.768 40.3964C51.9329 39.7113 53.3284 39.4885 54.6606 39.7747C55.9852 40.0715 57.1793 40.762 58.074 41.7484C58.51 42.1856 58.8267 42.7201 58.9957 43.304" fill="#263238"/>
<path d="M76.8238 33.8693C79.7072 33.8693 81.9401 33.4936 83.5225 32.7422C85.1048 31.9909 85.896 30.8965 85.896 29.459C85.896 28.185 85.4213 27.0906 84.4719 26.1758C83.5225 25.2284 82.3445 24.4281 80.9379 23.7747C79.5314 23.1213 77.615 22.3536 75.1887 21.4715C74.9777 21.4062 74.4678 21.2265 73.6591 20.9325C70.3537 19.6911 67.8043 18.4497 66.011 17.2083C64.2528 15.9668 63.3737 14.3661 63.3737 12.406C63.3737 10.2171 64.3056 8.56738 66.1692 7.45664C68.0329 6.3459 70.424 5.79053 73.3426 5.79053C75.4876 5.79053 77.4567 6.05188 79.2501 6.57458C81.0786 7.06461 82.5203 7.75066 83.5752 8.63271C84.6653 9.51477 85.2103 10.5112 85.2103 11.6219C84.7883 11.8179 84.384 11.9159 83.9972 11.9159C83.5752 11.9159 83.1357 11.8343 82.6785 11.6709C82.2566 11.4749 81.6236 11.1645 80.7797 10.7398C79.4083 10.0538 78.1248 9.51477 76.9293 9.12274C75.7337 8.69805 74.3272 8.4857 72.7097 8.4857C70.6702 8.4857 69.0175 8.81239 67.7516 9.46577C66.4857 10.1191 65.8528 11.0339 65.8528 12.2099C65.8528 13.1247 66.2747 13.9577 67.1187 14.7091C67.9977 15.4605 69.0878 16.1302 70.3889 16.7182C71.7251 17.2736 73.5008 17.9433 75.7162 18.7274C78.5292 19.7401 80.85 20.6875 82.6785 21.5695C84.507 22.4516 86.0542 23.5787 87.3201 24.9508C88.6212 26.2902 89.2717 27.8909 89.2717 29.7531C89.2717 31.9419 88.1465 33.6406 85.896 34.8494C83.6455 36.0255 80.85 36.6135 77.5095 36.6135C74.8722 36.6135 72.2701 36.2541 69.7032 35.5354C67.1362 34.8167 64.9385 33.755 63.11 32.3502C61.2815 30.9128 60.1211 29.1977 59.6288 27.2049C59.6288 26.3228 59.8925 25.5715 60.42 24.9508C60.9475 24.2974 61.598 23.9707 62.3716 23.9707C62.3716 26.0942 63.0045 27.9073 64.2704 29.41C65.5715 30.8801 67.3121 31.9909 69.4922 32.7422C71.7075 33.4936 74.1514 33.8693 76.8238 33.8693Z" fill="black"/>
<path d="M101.962 35.7314C101.611 35.7968 101.382 35.8294 101.277 35.8294C100.187 35.8294 99.4305 35.0781 99.0086 33.5753C98.6218 32.0725 98.4284 29.9654 98.4284 27.2539C98.4284 26.1432 98.4635 24.4117 98.5339 22.0596C98.6042 20.6221 98.6393 19.5441 98.6393 18.8254C94.3142 18.8254 92.1517 18.368 92.1517 17.4533C92.1517 17.1593 92.1868 16.9306 92.2572 16.7672C92.3627 16.6039 92.5736 16.5222 92.8901 16.5222L98.6393 16.1792C98.6042 14.5784 98.5163 12.8306 98.3756 10.9359C98.235 9.23709 98.1471 7.66899 98.1119 6.23156C98.1119 5.8722 98.2701 5.62719 98.5866 5.49651C98.9031 5.33317 99.2371 5.2515 99.5888 5.2515C100.011 5.2515 100.362 5.46385 100.644 5.88854C100.925 6.28057 101.066 6.68892 101.066 7.11362L101.435 16.0812L105.813 16.2772C106.481 16.2119 107.043 16.3262 107.501 16.6202C107.993 16.9142 108.257 17.4043 108.292 18.0903C107.553 18.3843 106.745 18.564 105.865 18.6293C104.986 18.6947 103.509 18.7274 101.435 18.7274C101.435 21.7655 101.593 26.7639 101.91 33.7223C101.91 34.441 101.91 34.9474 101.91 35.2414C101.945 35.5028 101.962 35.6661 101.962 35.7314Z" fill="black"/>
<path d="M135.452 35.4864C134.819 35.4864 134.309 35.2414 133.923 34.7514C133.571 34.2287 133.255 33.4446 132.973 32.3992C132.692 31.3212 132.252 29.459 131.655 26.8129C131.057 29.0017 129.932 30.7495 128.279 32.0562C126.626 33.3303 124.604 33.9673 122.213 33.9673C120.033 33.9673 118.187 33.2649 116.675 31.8602C115.198 30.4228 114.09 28.5443 113.352 26.2248C112.614 23.8727 112.244 21.3409 112.244 18.6293C112.244 17.3879 112.367 16.3262 112.614 15.4441C112.895 14.5294 113.229 13.8434 113.616 13.386C114.038 12.9287 114.442 12.7163 114.829 12.749C115.251 12.749 115.462 13.0103 115.462 13.533C115.462 13.9577 115.339 14.6274 115.093 15.5422C114.846 16.5549 114.723 17.7146 114.723 19.0214C114.723 20.9815 115.022 22.8926 115.62 24.7547C116.253 26.6169 117.167 28.1523 118.363 29.361C119.594 30.5371 121.035 31.1251 122.688 31.1251C124.059 31.1251 125.308 30.7495 126.433 29.9981C127.558 29.2467 128.437 28.2993 129.07 27.1559C129.738 26.0125 130.072 24.8854 130.072 23.7747V15.9832C130.459 15.2971 130.987 14.9541 131.655 14.9541C132.252 14.9541 132.657 15.4278 132.868 16.3752C133.079 17.3226 133.184 18.662 133.184 20.3935C133.184 21.8636 133.167 22.9906 133.131 23.7747C133.342 24.8527 133.659 25.9471 134.081 27.0579C134.538 28.1686 135.101 29.4264 135.769 30.8311C136.578 32.5626 136.982 33.6243 136.982 34.0163C136.982 34.9964 136.472 35.4864 135.452 35.4864Z" fill="black"/>
<path d="M150.239 35.6824C148.586 35.6824 147.144 35.1597 145.914 34.1143C144.718 33.0689 143.804 31.7132 143.171 30.0471C142.573 28.381 142.274 26.6495 142.274 24.8527C142.274 21.7165 142.977 19.0704 144.384 16.9142C145.826 14.7581 148.006 13.68 150.924 13.68C152.683 13.68 154.212 13.9741 155.513 14.5621C156.849 15.1175 158.59 16.0649 160.735 17.4043L162.106 18.2863C161.931 17.2083 161.667 15.9668 161.315 14.5621C160.964 13.1573 160.735 12.1936 160.63 11.6709C160.032 9.12275 159.592 7.22796 159.311 5.98654C159.065 4.71246 158.942 3.58539 158.942 2.60533C158.942 0.873887 159.469 0.00816562 160.524 0.00816562C160.911 0.792215 161.368 2.47466 161.895 5.05549C162.423 7.60365 163.091 11.0992 163.9 15.5422C164.744 20.2465 165.482 24.085 166.115 27.0579C166.748 30.0307 167.275 31.8929 167.697 32.6442C167.697 33.3956 167.1 33.7713 165.904 33.7713C164.99 33.7713 164.357 33.2813 164.005 32.3012C163.689 31.3212 163.495 29.606 163.425 27.1559H163.003C161.526 29.6387 159.61 31.6805 157.254 33.2813C154.898 34.882 152.56 35.6824 150.239 35.6824ZM150.924 33.2813C152.366 33.2813 153.913 32.7259 155.566 31.6152C157.254 30.4718 158.678 29.0997 159.838 27.4989C160.999 25.8655 161.579 24.3954 161.579 23.0886V21.6185C157.957 18.0903 154.617 16.3262 151.557 16.3262C149.412 16.3262 147.76 17.0613 146.599 18.5313C145.439 19.9688 144.859 21.8636 144.859 24.2157L144.911 25.2448C145.122 27.7276 145.72 29.6877 146.705 31.1251C147.689 32.5626 149.096 33.2813 150.924 33.2813Z" fill="black"/>
<path d="M185.289 58.9099C182.898 58.9099 180.753 58.4362 178.854 57.4888C176.991 56.5414 175.496 55.447 174.371 54.2056C173.246 52.9642 172.613 51.9515 172.472 51.1674C172.331 50.4487 172.507 49.8933 173 49.5013C173.527 49.1093 174.178 48.9459 174.951 49.0113C176.041 51.4288 177.342 53.2909 178.854 54.5976C180.366 55.9044 182.529 56.5904 185.342 56.6558C187.311 56.6884 188.876 55.5124 190.036 53.1275C191.232 50.7754 192.076 47.8842 192.568 44.454C193.06 41.0564 193.306 37.7079 193.306 34.4084C193.306 32.7096 193.254 31.3212 193.148 30.2431C190.476 33.2813 187.065 34.8004 182.916 34.8004C179.329 34.8004 176.569 33.2159 174.635 30.0471C172.736 26.8782 171.505 23.301 170.942 19.3154C170.872 18.9234 170.837 18.368 170.837 17.6493C170.837 15.5912 171.558 14.5621 173 14.5621C173.14 14.5621 173.334 15.3788 173.58 17.0122C173.967 19.5931 174.441 21.9126 175.004 23.9707C175.566 26.0288 176.498 27.9073 177.799 29.606C179.136 31.2722 180.894 32.1052 183.074 32.1052C184.797 32.1052 186.555 31.5825 188.348 30.5371C190.177 29.459 191.496 28.2666 192.304 26.9599C192.304 24.4771 191.953 22.2556 191.249 20.2955C190.581 18.3027 190.23 17.2409 190.195 17.1103C190.124 16.3915 190.089 15.9342 190.089 15.7382C190.089 15.0848 190.195 14.6111 190.405 14.3171C190.652 14.0231 191.003 13.876 191.46 13.876C191.953 13.876 192.515 14.8071 193.148 16.6692C193.781 18.5313 194.344 20.9652 194.836 23.9707C195.328 26.9762 195.662 30.1124 195.838 33.3793C195.909 35.0781 195.944 36.3358 195.944 37.1525C195.944 43.4249 195.1 48.6193 193.412 52.7355C191.759 56.8518 189.052 58.9099 185.289 58.9099Z" fill="black"/>
<path d="M120.812 95.993C118.385 95.993 116.311 95.3723 114.588 94.1309C112.865 92.8895 111.546 91.1907 110.632 89.0346C109.753 86.8784 109.313 84.4283 109.313 81.6841C109.313 78.6132 110.087 75.7057 111.634 72.9616C113.181 70.1847 115.203 67.9632 117.7 66.2971C120.231 64.5984 122.851 63.749 125.559 63.749C127.844 63.749 129.603 64.2227 130.833 65.1701C132.064 66.1175 132.679 67.2282 132.679 68.5023C132.679 69.2537 132.433 69.9397 131.941 70.5604C131.484 71.1811 130.816 71.6548 129.937 71.9815C129.831 71.7855 129.778 71.4751 129.778 71.0504C129.778 70.6584 129.831 70.2664 129.937 69.8744C130.007 69.3517 130.042 68.976 130.042 68.7473C130.042 68.4206 129.989 68.1429 129.884 67.9142C129.392 66.7708 128.055 66.1991 125.875 66.1991C125.277 66.1991 124.574 66.2481 123.765 66.3461C121.902 66.5748 120.056 67.4405 118.227 68.9433C116.399 70.4134 114.904 72.2592 113.744 74.4807C112.583 76.7021 112.003 78.9726 112.003 81.2921C112.003 83.3175 112.355 85.245 113.058 87.0745C113.796 88.8712 114.851 90.325 116.223 91.4357C117.594 92.5465 119.229 93.1018 121.128 93.1018C123.59 93.1018 125.629 92.8241 127.247 92.2688C128.899 91.7134 130.517 90.864 132.099 89.7206C132.275 89.5899 132.468 89.5246 132.679 89.5246C133.066 89.5246 133.33 89.737 133.47 90.1616C133.646 90.9457 133.084 91.7951 131.783 92.7098C130.482 93.6245 128.794 94.4086 126.719 95.062C124.644 95.6827 122.675 95.993 120.812 95.993Z" fill="black"/>
<path d="M148.652 95.503C146.577 95.503 144.696 95.0783 143.008 94.2289C141.356 93.3469 140.055 92.1381 139.105 90.6027C138.191 89.0346 137.734 87.2541 137.734 85.2613C137.734 81.9945 139.017 79.5606 141.584 77.9599C144.186 76.3591 147.369 75.5587 151.131 75.5587C152.854 75.5587 154.454 75.9507 155.931 76.7348C157.443 77.5188 158.656 78.6459 159.57 80.116C160.485 81.5861 160.942 83.2849 160.942 85.2123C160.942 87.3031 160.362 89.1326 159.201 90.7007C158.041 92.2361 156.511 93.4285 154.612 94.2779C152.749 95.0946 150.762 95.503 148.652 95.503ZM148.072 92.7098C151.342 92.7098 153.821 92.0238 155.509 90.6517C157.197 89.2796 158.041 87.2705 158.041 84.6243C158.041 82.8275 157.373 81.2757 156.036 79.969C154.735 78.6623 152.907 78.0089 150.551 78.0089C148.969 78.0089 147.369 78.2866 145.751 78.8419C144.134 79.3973 142.797 80.2304 141.742 81.3411C140.688 82.4518 140.16 83.7912 140.16 85.3593C140.16 86.6661 140.512 87.8912 141.215 89.0346C141.918 90.1453 142.868 91.0437 144.063 91.7297C145.294 92.3831 146.63 92.7098 148.072 92.7098Z" fill="black"/>
<path d="M189.399 95.209C188.767 95.209 188.257 94.964 187.87 94.4739C187.518 93.9512 187.202 93.1672 186.92 92.1218C186.639 91.0437 186.2 89.1816 185.602 86.5354C185.004 88.7242 183.879 90.472 182.226 91.7788C180.573 93.0528 178.552 93.6899 176.16 93.6899C173.98 93.6899 172.134 92.9875 170.622 91.5827C169.145 90.1453 168.038 88.2669 167.299 85.9474C166.561 83.5952 166.192 81.0634 166.192 78.3519C166.192 77.1105 166.315 76.0487 166.561 75.1667C166.842 74.252 167.176 73.5659 167.563 73.1086C167.985 72.6512 168.389 72.4389 168.776 72.4715C169.198 72.4715 169.409 72.7329 169.409 73.2556C169.409 73.6803 169.286 74.35 169.04 75.2647C168.794 76.2774 168.671 77.4372 168.671 78.7439C168.671 80.704 168.969 82.6152 169.567 84.4773C170.2 86.3394 171.114 87.8748 172.31 89.0836C173.541 90.2597 174.982 90.8477 176.635 90.8477C178.007 90.8477 179.255 90.472 180.38 89.7206C181.505 88.9692 182.384 88.0218 183.017 86.8784C183.685 85.735 184.019 84.608 184.019 83.4972V75.7057C184.406 75.0197 184.934 74.6767 185.602 74.6767C186.2 74.6767 186.604 75.1504 186.815 76.0978C187.026 77.0451 187.131 78.3846 187.131 80.116C187.131 81.5861 187.114 82.7132 187.079 83.4972C187.29 84.5753 187.606 85.6697 188.028 86.7804C188.485 87.8912 189.048 89.1489 189.716 90.5537C190.525 92.2851 190.929 93.3468 190.929 93.7389C190.929 94.7189 190.419 95.209 189.399 95.209Z" fill="black"/>
<path d="M200.177 95.65C199.685 95.7807 199.404 95.846 199.333 95.846C199.052 95.846 198.753 95.7153 198.437 95.454C197.276 93.8532 196.432 91.06 195.905 87.0745C195.413 83.0889 195.166 79.6586 195.166 76.7838C195.166 76.3264 195.518 76.0978 196.221 76.0978C197.276 76.0978 197.804 76.6368 197.804 77.7149C197.804 78.0089 197.786 78.2539 197.751 78.4499C198.067 77.7639 198.665 77.0615 199.544 76.3428C200.423 75.6241 201.443 75.0197 202.604 74.5297C203.764 74.0396 204.942 73.7946 206.137 73.7946C209.9 73.7946 212.643 75.3464 214.366 78.4499C216.089 81.5208 216.95 85.343 216.95 89.9166C216.95 91.4847 216.774 92.7425 216.423 93.6899C216.071 94.6046 215.596 95.062 214.999 95.062C214.366 95.062 214.049 94.8823 214.049 94.5229C214.295 92.7915 214.419 91.0927 214.419 89.4266C214.419 85.2123 213.627 82.0271 212.045 79.871C210.463 77.6822 208.37 76.5878 205.768 76.5878C204.502 76.5878 203.272 76.8818 202.076 77.4698C200.916 78.0579 199.966 78.8746 199.228 79.92C198.525 80.9654 198.173 82.1578 198.173 83.4972C198.173 85 198.261 86.3067 198.437 87.4175C198.612 88.5282 198.894 89.8676 199.281 91.4357C199.703 92.9712 200.001 94.3759 200.177 95.65Z" fill="black"/>
<path d="M229.671 95.454C229.319 95.5193 229.09 95.552 228.985 95.552C227.895 95.552 227.139 94.8006 226.717 93.2978C226.33 91.7951 226.137 89.6879 226.137 86.9764C226.137 85.8657 226.172 84.1343 226.242 81.7821C226.312 80.3447 226.348 79.2666 226.348 78.5479C222.022 78.5479 219.86 78.0905 219.86 77.1758C219.86 76.8818 219.895 76.6531 219.965 76.4898C220.071 76.3264 220.282 76.2448 220.598 76.2448L226.348 75.9017C226.312 74.301 226.225 72.5532 226.084 70.6584C225.943 68.9596 225.855 67.3915 225.82 65.9541C225.82 65.5947 225.978 65.3497 226.295 65.2191C226.611 65.0557 226.945 64.974 227.297 64.974C227.719 64.974 228.071 65.1864 228.352 65.6111C228.633 66.0031 228.774 66.4115 228.774 66.8362L229.143 75.8037L233.521 75.9997C234.189 75.9344 234.752 76.0487 235.209 76.3428C235.701 76.6368 235.965 77.1268 236 77.8129C235.262 78.1069 234.453 78.2866 233.574 78.3519C232.695 78.4172 231.218 78.4499 229.143 78.4499C229.143 81.4881 229.301 86.4864 229.618 93.4449C229.618 94.1636 229.618 94.6699 229.618 94.9639C229.653 95.2253 229.671 95.3886 229.671 95.454Z" fill="black"/>
</svg>
